<svg id="Layer_1" data-name="Layer 1" xmlns="http://www.w3.org/2000/svg" viewBox="0 0 200 200"><defs><style>.cls-1{fill:#231f20;}</style></defs><title>Wondicon - UI (Free)</title><path class="cls-1" d="M170.69,175.35H29.31a5,5,0,0,1,0-10H170.69a5,5,0,0,1,0,10Z"/><path class="cls-1" d="M62.17,99.6A24.19,24.19,0,1,1,86.35,75.41,24.22,24.22,0,0,1,62.17,99.6Zm0-38.37A14.19,14.19,0,1,0,76.35,75.41,14.2,14.2,0,0,0,62.17,61.23Z"/><path class="cls-1" d="M29,154.78a5,5,0,0,1-5-5V122.9c0-13.56,16.77-24.18,38.17-24.18,10,0,19.4,2.35,26.49,6.6a5,5,0,1,1-5.16,8.58c-5.47-3.29-13.24-5.18-21.33-5.18-16.6,0-28.17,7.47-28.17,14.18v26.88A5,5,0,0,1,29,154.78Z"/><path class="cls-1" d="M127.71,83.72A29.71,29.71,0,1,1,157.41,54,29.74,29.74,0,0,1,127.71,83.72Zm0-49.41A19.71,19.71,0,1,0,147.41,54,19.73,19.73,0,0,0,127.71,34.31Z"/><path class="cls-1" d="M170.42,154.78a5,5,0,0,1-5-5V115.16c0-9.51-15.15-19.7-37.71-19.7S90,105.65,90,115.16v34.62a5,5,0,0,1-10,0V115.16c0-16.65,21-29.7,47.71-29.7s47.71,13.05,47.71,29.7v34.62A5,5,0,0,1,170.42,154.78Z"/></svg>